<?xml version="1.0" standalone="no"?>
<!DOCTYPE svg PUBLIC "-//W3C//DTD SVG 20010904//EN"
 "http://www.w3.org/TR/2001/REC-SVG-20010904/DTD/svg10.dtd">
<svg version="1.0" xmlns="http://www.w3.org/2000/svg"
 width="574.000000pt" height="574.000000pt" viewBox="0 0 574.000000 574.000000"
 preserveAspectRatio="xMidYMid meet">
<metadata>
Created by potrace 1.11, written by Peter Selinger 2001-2013
</metadata>
<g transform="translate(0.000000,574.000000) scale(0.100000,-0.100000)"
fill="#000000" stroke="none">
<path d="M2711 5704 c-12 -15 -24 -39 -28 -53 -21 -90 -103 -161 -184 -161
-51 0 -84 19 -131 75 -77 92 -136 134 -139 99 -1 -8 -2 -17 -3 -21 -1 -5 -5
-26 -9 -48 -28 -146 -86 -208 -194 -206 -54 0 -74 11 -146 78 -32 29 -67 53
-77 53 -38 0 -50 -27 -50 -108 0 -90 -17 -131 -71 -175 -38 -29 -99 -44 -141
-34 -13 4 -52 24 -86 47 -109 70 -139 53 -125 -68 13 -120 -9 -177 -88 -221
-51 -29 -105 -26 -184 11 -107 50 -136 32 -109 -68 22 -80 30 -117 29 -129
-12 -117 -106 -176 -240 -151 -91 18 -135 11 -135 -22 0 -11 15 -48 34 -83 48
-91 53 -128 26 -184 -35 -73 -77 -94 -203 -104 -150 -12 -150 -11 -84 -107 65
-96 79 -134 68 -192 -16 -79 -62 -110 -226 -147 -109 -25 -108 -22 -18 -117
111 -118 128 -185 68 -256 -26 -32 -71 -55 -218 -116 -32 -13 -36 -18 -28 -33
12 -23 43 -51 110 -101 69 -52 91 -86 91 -140 0 -77 -40 -130 -138 -180 -29
-15 -61 -35 -70 -45 -27 -31 1 -68 68 -88 105 -32 166 -109 158 -200 -6 -56
-30 -89 -111 -150 -70 -52 -78 -65 -64 -96 11 -25 20 -29 90 -38 62 -7 86 -17
126 -51 57 -48 76 -121 47 -187 -8 -18 -37 -59 -65 -92 -29 -33 -51 -69 -51
-82 0 -34 38 -53 117 -57 39 -2 86 -11 107 -21 69 -33 110 -127 84 -195 -5
-14 -27 -53 -49 -86 -22 -34 -41 -71 -44 -83 -5 -25 28 -51 59 -45 11 2 55 7
96 10 66 5 80 3 119 -18 59 -31 94 -95 87 -154 -2 -22 -18 -70 -35 -106 -33
-70 -38 -97 -19 -116 17 -17 57 -15 124 8 119 42 198 20 243 -67 19 -38 19
-114 0 -173 -25 -76 -15 -119 29 -120 7 0 47 16 88 36 97 48 149 54 203 23 30
-17 48 -37 68 -76 23 -49 25 -60 19 -131 -6 -70 -5 -80 13 -96 26 -24 50 -17
136 38 84 54 139 66 193 42 61 -28 96 -93 108 -201 12 -116 44 -123 137 -30
96 96 152 114 231 75 50 -24 78 -66 106 -158 34 -117 72 -118 148 -5 48 70 87
102 136 110 86 14 151 -28 202 -130 60 -120 98 -118 145 8 27 74 90 139 143
149 76 14 116 -10 228 -138 29 -33 39 -38 61 -32 27 6 28 8 59 131 22 90 90
149 169 148 44 -1 84 -21 145 -74 66 -57 92 -65 118 -39 17 16 21 35 23 88 3
97 10 126 41 157 80 80 148 79 277 -5 58 -38 69 -42 90 -32 14 7 25 17 26 24
0 7 2 21 4 30 2 10 -3 40 -10 67 -26 101 -7 159 72 215 53 37 96 36 192 -2 60
-24 79 -28 102 -20 37 13 39 31 12 112 -41 123 -25 199 53 246 42 26 114 29
194 8 63 -17 95 -10 105 22 7 20 2 31 -60 145 -34 64 -31 120 12 173 52 64 85
77 187 74 130 -3 146 22 77 119 -62 87 -74 117 -69 170 9 86 64 131 188 153
135 23 141 47 40 148 -40 40 -74 85 -81 105 -31 96 43 196 164 218 48 9 87 40
87 69 0 23 -28 55 -68 76 -36 18 -102 80 -118 111 -43 84 9 174 132 230 108
49 110 91 7 135 -127 54 -173 104 -173 187 0 51 37 109 92 147 82 57 105 93
74 119 -8 6 -47 21 -87 32 -97 27 -142 53 -168 99 -40 72 -20 143 69 239 79
86 63 116 -64 119 -97 2 -150 24 -187 75 -48 67 -38 124 46 263 21 35 15 81
-13 86 -9 2 -50 -1 -89 -5 -40 -5 -89 -6 -108 -3 -66 13 -135 96 -135 163 0
14 14 56 31 95 51 116 25 150 -91 117 -125 -36 -187 -20 -243 61 -21 30 -22
111 -3 190 15 66 5 100 -30 100 -13 0 -57 -18 -99 -40 -115 -61 -187 -50 -249
38 -27 38 -29 47 -28 128 1 47 -3 95 -9 105 -16 30 -57 23 -113 -20 -28 -22
-70 -47 -94 -56 -109 -44 -209 37 -228 186 -9 74 -19 95 -44 102 -17 4 -34 -6
-74 -48 -78 -80 -120 -105 -175 -105 -82 0 -148 61 -175 160 -20 77 -26 88
-46 95 -30 9 -49 -5 -85 -66 -110 -180 -255 -171 -356 21 -40 76 -64 87 -98
44z m329 -308 c14 -2 48 -7 75 -11 28 -3 66 -9 85 -11 37 -5 191 -33 225 -41
11 -2 31 -6 45 -9 75 -15 366 -121 475 -173 315 -150 593 -361 805 -611 30
-36 58 -67 61 -70 3 -3 36 -48 73 -100 253 -353 419 -783 472 -1220 3 -30 8
-149 9 -265 3 -196 1 -222 -26 -379 -16 -93 -41 -215 -55 -270 -175 -695 -679
-1309 -1338 -1632 -219 -107 -516 -200 -706 -220 -25 -3 -51 -7 -59 -10 -25
-8 -204 -18 -321 -18 -452 1 -847 106 -1245 331 -211 119 -482 346 -661 553
-174 202 -343 486 -436 735 -36 96 -84 249 -94 299 -2 12 -8 44 -14 71 -18 88
-20 99 -26 150 -4 28 -8 52 -9 55 -5 8 -19 237 -19 310 0 61 12 271 18 315 14
104 20 143 38 225 97 461 317 886 632 1220 251 266 596 493 950 625 196 73
322 104 541 131 28 3 95 12 150 19 90 11 291 12 355 1z"/>
<path d="M2756 5279 c-26 -4 -76 -10 -110 -14 -128 -12 -334 -48 -415 -71
-556 -161 -1046 -518 -1354 -986 -203 -308 -342 -665 -383 -983 -3 -22 -7 -51
-9 -65 -7 -37 -6 -539 0 -580 3 -19 10 -66 16 -105 74 -478 324 -955 693
-1320 349 -345 777 -567 1254 -650 206 -35 295 -43 442 -39 328 10 357 13 525
53 821 196 1505 824 1753 1611 48 151 64 225 98 445 3 22 10 60 15 85 8 44 6
426 -4 465 -2 11 -8 47 -12 80 -4 32 -9 68 -11 80 -2 11 -9 47 -15 79 -42 232
-171 556 -311 779 -264 422 -666 764 -1120 951 -204 84 -377 127 -728 182 -54
8 -278 11 -324 3z m454 -173 c13 -3 42 -8 65 -11 22 -4 58 -11 80 -17 22 -5
48 -12 59 -14 165 -31 485 -171 666 -290 415 -272 694 -603 884 -1048 25 -59
49 -132 52 -162 6 -48 5 -54 -14 -61 -27 -10 -4244 -9 -4260 1 -21 12 -13 52
29 158 78 197 191 402 311 565 290 393 733 687 1248 827 207 56 291 65 585 61
149 -2 281 -6 295 -9z m859 -1736 c34 -18 63 -114 65 -220 2 -59 -16 -203 -33
-260 -5 -19 -12 -68 -16 -109 -3 -41 -8 -77 -10 -81 -9 -15 -13 -60 -6 -65 5
-2 13 7 19 20 13 27 23 30 52 15 29 -16 42 -47 46 -114 4 -62 31 -129 49 -123
5 2 19 30 31 63 11 33 28 73 37 91 20 37 119 97 148 88 23 -8 46 -80 45 -142
-1 -48 8 -50 38 -9 20 26 21 41 22 354 1 330 6 386 40 459 30 62 87 52 102
-20 14 -64 6 -359 -13 -462 -8 -49 -27 -131 -40 -181 -35 -128 -30 -202 15
-256 l20 -23 25 28 c13 15 36 66 51 118 19 63 37 100 57 120 37 38 78 39 106
3 29 -36 28 -58 -1 -48 -55 18 -78 3 -101 -66 -15 -46 -16 -75 -2 -122 13 -50
32 -32 51 47 10 41 21 75 26 75 14 0 37 -44 51 -99 l14 -53 34 48 c19 27 46
67 59 89 l25 40 3 -41 c4 -53 -32 -147 -65 -174 -33 -26 -57 -25 -95 1 l-29
21 -20 -21 c-24 -25 -54 -21 -81 11 -18 20 -18 20 -54 -16 -38 -38 -53 -43
-85 -26 -21 12 -59 83 -59 112 0 10 -4 18 -10 18 -25 0 -97 -51 -113 -81 -26
-46 -46 -59 -87 -56 -26 1 -39 10 -57 35 -12 18 -23 38 -25 44 -3 8 -12 6 -28
-5 -14 -9 -37 -17 -53 -17 -21 0 -38 -11 -64 -40 -58 -64 -102 -51 -133 39
l-17 52 -26 -44 c-27 -45 -73 -74 -102 -63 -28 10 -42 67 -46 178 -1 31 -5 62
-9 69 -4 6 -26 -45 -49 -114 -23 -69 -49 -128 -57 -131 -28 -11 -48 41 -46
121 0 41 -4 87 -10 101 -9 24 -13 15 -44 -98 -19 -68 -40 -127 -46 -131 -14
-9 -38 0 -39 15 -3 38 -7 127 -8 164 -1 60 -27 57 -35 -5 -10 -66 -54 -151
-87 -169 -32 -16 -71 -6 -87 23 -10 17 -12 17 -34 -5 -33 -30 -75 -29 -90 3
l-11 25 -39 -35 c-45 -41 -70 -44 -103 -11 -34 34 -48 98 -42 192 3 69 2 81
-11 80 -10 -2 -26 -41 -49 -122 -29 -100 -39 -123 -66 -146 -39 -34 -42 -34
-83 -3 l-32 25 -26 -31 c-32 -38 -48 -33 -76 20 -36 72 -21 227 29 283 43 48
127 37 119 -16 -2 -16 -12 -22 -42 -26 -26 -3 -45 -13 -58 -30 -20 -27 -31
-107 -22 -153 6 -27 7 -27 24 -12 10 9 21 31 24 48 4 18 13 41 21 52 14 17 17
18 31 3 8 -8 21 -39 28 -69 10 -45 15 -53 31 -51 25 5 27 9 61 108 28 82 28
83 11 131 -20 57 -22 111 -3 136 21 27 42 20 61 -20 10 -21 30 -51 45 -68 24
-27 27 -38 29 -110 2 -99 10 -157 22 -169 16 -17 67 53 90 123 29 88 55 135
87 153 34 19 62 15 84 -13 30 -37 23 -54 -22 -55 -45 -2 -64 -14 -87 -57 -18
-36 -13 -104 10 -137 15 -21 16 -20 39 51 12 40 28 74 34 76 14 5 43 -55 51
-103 3 -19 9 -37 14 -40 16 -10 59 73 83 162 26 101 49 144 76 144 23 0 48
-62 51 -124 2 -26 7 -45 13 -43 5 2 18 29 28 59 17 49 23 58 49 63 17 4 32 5
34 3 2 -2 5 -34 7 -71 2 -37 6 -67 10 -67 3 0 19 26 34 58 35 73 52 92 80 92
34 0 44 -28 43 -129 0 -50 2 -95 6 -101 15 -24 53 -10 76 28 l24 37 1 390 c2
403 3 418 45 476 23 33 23 33 48 19z m-1676 -45 c136 -64 200 -250 144 -416
-41 -120 -104 -179 -192 -179 -98 0 -156 70 -157 193 -1 77 28 169 52 165 16
-4 16 -18 5 -118 -14 -109 31 -183 107 -178 71 5 158 133 158 233 0 193 -154
305 -310 225 -86 -44 -184 -184 -206 -295 -29 -146 -30 -228 -7 -330 31 -134
88 -216 181 -262 136 -66 275 4 361 182 33 67 50 82 52 43 4 -74 -29 -144
-103 -220 -177 -182 -418 -108 -517 157 -29 78 -36 127 -34 260 2 191 64 365
168 468 101 102 190 123 298 72z m-1147 -28 c18 -19 38 -55 45 -79 25 -89 1
-243 -37 -243 -21 0 -21 3 -4 92 15 75 7 123 -26 163 -55 65 -137 25 -168 -82
-27 -90 -33 -182 -31 -414 2 -248 0 -238 82 -315 120 -113 192 -118 271 -20
38 47 52 51 52 15 0 -67 -72 -147 -142 -159 -51 -9 -124 26 -196 95 -29 27
-58 50 -65 50 -18 0 -39 -19 -67 -61 -57 -87 -163 -119 -230 -70 -44 32 -63
77 -64 151 0 77 21 122 74 157 43 30 95 29 171 -2 34 -13 64 -23 68 -21 4 3 6
28 5 58 -9 253 -6 407 9 458 9 30 18 72 21 92 9 62 37 117 73 147 29 24 44 29
81 27 37 -2 51 -9 78 -39z m358 -679 c9 -12 16 -33 16 -45 0 -20 -4 -22 -25
-17 -66 16 -96 -22 -96 -121 0 -84 13 -87 55 -11 20 36 43 66 51 66 9 0 23
-28 38 -75 l23 -74 16 27 c8 15 21 43 27 63 13 40 54 84 70 75 21 -14 -42
-172 -83 -206 -25 -20 -64 -15 -85 11 l-19 24 -24 -21 c-33 -30 -53 -35 -77
-17 -31 21 -43 58 -42 132 1 124 50 208 123 210 9 1 24 -9 32 -21z m3374 -491
c19 -15 14 -43 -25 -135 -190 -447 -508 -808 -946 -1071 -205 -123 -467 -222
-697 -261 -30 -6 -66 -12 -80 -15 -14 -3 -50 -7 -80 -11 -30 -3 -73 -7 -95 -9
-61 -7 -272 -6 -345 0 -307 28 -560 96 -815 220 -479 233 -877 650 -1085 1138
-49 116 -53 134 -34 145 23 13 4186 12 4202 -1z"/>
<path d="M2804 4886 c-48 -21 -85 -76 -85 -127 -1 -24 4 -57 11 -74 13 -35 70
-115 117 -166 86 -93 108 -147 78 -192 -36 -56 -85 -34 -114 49 -16 49 -17 50
-49 42 -72 -19 -44 -141 42 -182 138 -65 264 79 201 230 -8 21 -32 58 -53 83
-124 149 -142 176 -142 207 0 73 84 85 115 16 26 -60 31 -67 50 -71 42 -8 60
72 29 130 -29 57 -131 85 -200 55z"/>
<path d="M3386 4800 c-65 -20 -90 -61 -161 -255 -74 -205 -74 -320 2 -366 48
-30 119 -30 161 -1 33 24 66 94 57 122 -14 44 -46 29 -108 -48 -13 -17 -26
-22 -52 -20 -32 2 -35 5 -35 33 0 48 35 170 86 301 50 130 63 150 100 157 33
6 45 -13 47 -77 3 -68 16 -85 51 -67 22 12 33 33 43 85 7 38 -35 103 -81 125
-45 22 -64 24 -110 11z"/>
<path d="M2242 4764 c-23 -16 -28 -47 -13 -86 5 -13 12 -46 15 -73 4 -28 13
-77 21 -110 7 -33 21 -105 30 -160 37 -229 44 -246 96 -220 24 13 28 21 27 55
-1 113 69 143 140 59 27 -33 60 -37 90 -11 21 17 20 17 -22 82 -24 36 -94 148
-156 250 -62 102 -122 195 -133 208 -24 26 -63 29 -95 6z m177 -286 c32 -68
56 -126 52 -130 -3 -4 -18 -9 -33 -12 -35 -6 -64 23 -78 77 -6 23 -15 60 -21
81 -6 22 -13 48 -15 59 -4 21 11 47 28 47 5 0 35 -55 67 -122z"/>
<path d="M1799 4518 c-92 -71 -154 -147 -135 -165 3 -3 25 0 50 7 69 19 80 12
191 -124 22 -27 56 -68 75 -91 19 -23 55 -65 80 -94 25 -30 47 -57 50 -61 13
-19 51 -30 69 -21 39 21 34 51 -19 114 -10 12 -63 79 -119 148 -55 70 -123
146 -150 170 l-49 43 30 40 c56 78 11 99 -73 34z"/>
<path d="M3907 4506 c-22 -17 -126 -106 -147 -126 -8 -8 -31 -28 -50 -44 -42
-35 -147 -126 -207 -180 -48 -43 -54 -71 -19 -87 20 -10 31 -8 59 10 47 29 77
26 123 -10 51 -40 50 -39 38 -47 -23 -17 -45 -65 -40 -88 7 -25 40 -49 56 -39
36 22 293 520 293 568 0 50 -63 76 -106 43z m-23 -171 c-33 -79 -83 -157 -129
-197 -38 -35 -47 -35 -67 0 -16 27 -16 30 2 58 22 34 180 173 197 174 9 0 8
-9 -3 -35z"/>
<path d="M4619 3258 c-12 -41 -14 -104 -12 -288 1 -129 3 -237 3 -240 3 -7 29
129 35 175 2 22 7 87 11 145 11 182 9 219 -9 244 -12 16 -15 12 -28 -36z"/>
<path d="M4040 3275 c-9 -10 -13 -83 -14 -257 -1 -134 0 -255 2 -270 7 -49 22
-18 22 45 0 34 5 78 11 97 17 53 21 400 4 400 -7 0 -18 -7 -25 -15z"/>
<path d="M4111 2601 c-11 -7 -12 -17 -4 -50 10 -39 10 -41 -12 -41 -18 0 -25
7 -30 30 -7 31 -19 39 -28 17 -15 -38 27 -187 52 -187 20 0 51 44 53 74 3 60
-3 151 -10 158 -4 4 -13 3 -21 -1z"/>
<path d="M4364 2578 c-21 -41 -24 -149 -5 -172 17 -20 45 -21 62 0 10 13 10
24 -5 67 -9 29 -17 71 -18 95 -2 50 -12 53 -34 10z"/>
<path d="M4447 2540 c3 -11 7 -20 9 -20 2 0 4 9 4 20 0 11 -4 20 -9 20 -5 0
-7 -9 -4 -20z"/>
<path d="M758 2516 c-64 -42 -67 -127 -7 -178 55 -46 139 -21 189 58 36 58 28
89 -32 120 -49 25 -113 25 -150 0z"/>
<path d="M2195 1820 c-22 -4 -58 -11 -80 -14 -51 -8 -104 -17 -130 -23 -61
-13 -206 -33 -242 -33 -25 0 -43 -5 -43 -11 0 -11 137 -7 260 6 94 10 251 16
269 10 21 -6 28 -29 12 -39 -5 -3 -73 -8 -151 -11 -79 -3 -146 -7 -150 -10 -4
-2 -60 -7 -126 -11 -65 -4 -121 -8 -123 -10 -14 -13 37 -16 289 -19 155 -2
284 -6 287 -9 14 -14 -13 -19 -124 -23 -65 -2 -158 -6 -208 -8 -49 -1 -119 -3
-154 -4 -35 -1 -62 -3 -60 -5 9 -8 122 -17 298 -22 102 -4 196 -7 209 -8 26
-1 34 -18 10 -22 -56 -8 -234 -16 -366 -17 -189 -1 -173 -20 28 -32 96 -6 147
-12 240 -29 41 -7 104 -12 140 -11 58 2 78 10 194 70 88 45 150 70 195 79 97
19 741 20 841 2 41 -8 93 -17 115 -20 22 -4 74 -13 115 -22 41 -8 116 -17 165
-19 156 -5 231 30 242 112 5 35 1 44 -29 75 -54 57 -114 66 -263 38 -27 -5
-70 -12 -95 -15 -75 -10 -266 -41 -306 -50 -39 -9 -572 -29 -731 -27 -100 0
-135 9 -228 54 -145 71 -227 93 -300 78z"/>
<path d="M2385 1091 c-20 -4 -31 -14 -36 -31 -10 -34 -11 -228 -1 -232 4 -2
30 -1 57 3 37 4 45 8 30 13 -30 11 -57 53 -50 77 4 11 19 25 33 31 l27 12 -25
4 c-37 6 -43 16 -36 57 5 26 14 39 32 45 21 9 26 32 6 29 -4 -1 -20 -4 -37 -8z"/>
<path d="M2886 1086 c-8 -6 -18 -23 -22 -38 -9 -40 24 -38 37 2 12 33 28 40
30 13 3 -41 -4 -72 -32 -142 -16 -41 -27 -76 -24 -79 3 -3 27 -7 53 -9 41 -2
44 -1 24 9 -34 17 -36 48 -8 112 28 64 33 108 14 123 -22 17 -56 21 -72 9z"/>
<path d="M3040 1080 c-36 -36 -38 -192 -2 -232 31 -36 101 -15 110 33 4 24 6
104 3 145 -3 54 -75 90 -111 54z m54 -32 c21 -30 22 -156 2 -184 -25 -34 -41
-2 -45 92 -4 114 9 142 43 92z"/>
<path d="M3221 1091 c-28 -18 -37 -214 -11 -246 18 -22 77 -20 90 4 5 11 10
63 11 117 1 90 -1 100 -21 116 -24 20 -47 23 -69 9z m67 -129 c-1 -96 -23
-133 -56 -100 -15 15 -16 149 -1 182 16 34 42 38 51 8 4 -13 6 -54 6 -90z"/>
<path d="M3365 1035 c9 -88 25 -198 30 -203 2 -2 8 -1 14 2 6 4 8 39 6 89 -2
45 -4 103 -5 129 0 45 -2 48 -25 46 -25 -2 -26 -4 -20 -63z"/>
<path d="M2640 1041 c-7 -13 -7 -28 0 -46 5 -14 10 -45 10 -68 0 -56 9 -84 27
-92 23 -8 25 -2 8 38 -19 45 -19 97 -1 122 10 14 11 25 3 42 -13 28 -33 30
-47 4z"/>
<path d="M2500 1011 c-17 -33 -12 -56 20 -86 37 -35 38 -55 5 -55 -33 0 -33
-28 0 -36 30 -7 65 18 65 48 0 10 -15 33 -34 51 -18 18 -36 43 -39 56 -5 20
-2 22 16 18 12 -2 31 -8 42 -12 20 -8 20 -8 1 13 -24 27 -62 28 -76 3z"/>
<path d="M2737 864 c-14 -15 -6 -34 14 -34 14 0 19 5 17 17 -3 18 -20 27 -31
17z"/>
</g>
</svg>
